<svg width="25" height="25" viewBox="0 0 25 25" fill="none" xmlns="http://www.w3.org/2000/svg">
<path d="M16.8157 8.58157C15.3312 7.09729 15.2496 5.50594 18.3038 2.45209C18.3323 2.42442 18.3539 2.39047 18.3668 2.35295C18.3798 2.31544 18.3838 2.2754 18.3785 2.23606C18.3732 2.19672 18.3588 2.15916 18.3364 2.12641C18.3139 2.09366 18.2841 2.06661 18.2494 2.04745C15.5091 0.526876 12.8305 0.87708 10.5711 3.13617C8.45328 5.25554 8.01229 7.74507 9.22455 10.3108C9.24629 10.3571 9.25238 10.4093 9.24191 10.4593C9.23143 10.5094 9.20496 10.5547 9.16648 10.5884C8.07241 11.5515 7.0061 12.5457 5.96887 13.5697C4.91631 14.6221 3.93453 15.7054 2.98722 16.7669C1.86207 18.0298 1.61889 19.9968 2.67508 21.3214C2.84022 21.5282 3.01626 21.7278 3.20499 21.9184C3.39554 22.1071 3.59517 22.2813 3.80205 22.4482C5.12682 23.5043 7.09402 23.2611 8.3571 22.1343C9.45113 21.1718 10.5174 20.1782 11.5547 19.1548C12.5783 18.1171 13.572 17.0503 14.5345 15.9558C14.5685 15.9176 14.6139 15.8915 14.664 15.8814C14.7141 15.8712 14.7661 15.8776 14.8122 15.8996C17.3783 17.1099 19.8681 16.6707 21.9878 14.5514C24.1727 12.3667 24.572 9.78823 23.2164 7.13721C23.204 7.11388 23.1863 7.0938 23.1647 7.07856C23.1431 7.06333 23.1183 7.05337 23.0921 7.04948C23.066 7.0456 23.0393 7.0479 23.0143 7.0562C22.9892 7.06451 22.9664 7.07858 22.9478 7.09729C19.8935 10.1493 18.302 10.0677 16.8175 8.58157H16.8157Z" fill="#D0F3F5" stroke="#3FB8C0" strokeWidth="2" strokeLinecap="round" strokeLinejoin="round"/>
</svg>